<?xml version="1.0" encoding="utf-8"?>
<svg width="345px" height="254px" viewBox="0 0 345 254" version="1.1" xmlns:xlink="http://www.w3.org/1999/xlink" xmlns="http://www.w3.org/2000/svg">
  <defs>
    <path d="M37.999 23L111.001 23Q111.222 23 111.443 22.9892Q111.663 22.9783 111.883 22.9567Q112.103 22.935 112.321 22.9026Q112.54 22.8702 112.757 22.8271Q112.973 22.784 113.188 22.7303Q113.402 22.6767 113.613 22.6125Q113.825 22.5484 114.033 22.474Q114.241 22.3996 114.445 22.315Q114.649 22.2305 114.849 22.136Q115.048 22.0416 115.243 21.9374Q115.438 21.8333 115.627 21.7197Q115.817 21.6062 116.001 21.4834Q116.184 21.3607 116.362 21.2291Q116.539 21.0975 116.71 20.9573Q116.881 20.8172 117.044 20.6688Q117.208 20.5205 117.364 20.3643Q117.52 20.2081 117.669 20.0444Q117.817 19.8807 117.957 19.7099Q118.097 19.5392 118.229 19.3617Q118.361 19.1843 118.483 19.0006Q118.606 18.8169 118.72 18.6274Q118.833 18.438 118.937 18.2431Q119.042 18.0483 119.136 17.8486Q119.23 17.6489 119.315 17.4448Q119.4 17.2407 119.474 17.0327Q119.548 16.8247 119.613 16.6133Q119.677 16.4019 119.73 16.1876Q119.784 15.9733 119.827 15.7566Q119.87 15.54 119.903 15.3215Q119.935 15.1029 119.957 14.8831Q119.978 14.6632 119.989 14.4426Q120 14.2219 120 14.001L120 1.98497e-06L29 1.32738e-05L29 14.001Q29 14.222 29.0108 14.4426Q29.0217 14.6632 29.0433 14.8831Q29.065 15.1029 29.0974 15.3215Q29.1298 15.54 29.1729 15.7567Q29.216 15.9733 29.2697 16.1876Q29.3234 16.4019 29.3875 16.6133Q29.4516 16.8247 29.526 17.0327Q29.6005 17.2407 29.685 17.4448Q29.7695 17.6489 29.864 17.8486Q29.9584 18.0483 30.0626 18.2431Q30.1667 18.438 30.2803 18.6274Q30.3939 18.8169 30.5166 19.0006Q30.6393 19.1843 30.7709 19.3617Q30.9025 19.5392 31.0427 19.7099Q31.1828 19.8807 31.3312 20.0444Q31.4795 20.2081 31.6357 20.3643Q31.792 20.5205 31.9556 20.6689Q32.1193 20.8172 32.2901 20.9574Q32.4609 21.0975 32.6383 21.2291Q32.8157 21.3607 32.9994 21.4834Q33.1831 21.6062 33.3726 21.7197Q33.5621 21.8333 33.7569 21.9374Q33.9517 22.0416 34.1514 22.136Q34.3511 22.2305 34.5552 22.315Q34.7593 22.3996 34.9673 22.474Q35.1753 22.5484 35.3867 22.6125Q35.5981 22.6767 35.8124 22.7303Q36.0267 22.784 36.2434 22.8271Q36.4601 22.8702 36.6786 22.9026Q36.8971 22.9351 37.1169 22.9567Q37.3368 22.9784 37.5574 22.9892Q37.7781 23 37.999 23Z" id="path_1" />
    <path d="M36.999 28.0001L112.001 28.0001Q112.32 28.0001 112.639 27.9844Q112.958 27.9688 113.275 27.9375Q113.593 27.9062 113.908 27.8594Q114.224 27.8126 114.537 27.7503Q114.85 27.6881 115.159 27.6105Q115.469 27.533 115.774 27.4404Q116.08 27.3477 116.38 27.2402Q116.681 27.1327 116.975 27.0106Q117.27 26.8885 117.559 26.752Q117.847 26.6156 118.129 26.4652Q118.41 26.3148 118.684 26.1507Q118.958 25.9867 119.223 25.8094Q119.488 25.6321 119.744 25.442Q120.001 25.2519 120.247 25.0495Q120.494 24.847 120.731 24.6327Q120.967 24.4184 121.193 24.1928Q121.418 23.9671 121.633 23.7307Q121.847 23.4942 122.049 23.2476Q122.252 23.0009 122.442 22.7446Q122.632 22.4883 122.809 22.2229Q122.987 21.9576 123.151 21.6839Q123.315 21.4102 123.465 21.1288Q123.616 20.8473 123.752 20.5589Q123.888 20.2704 124.01 19.9756Q124.133 19.6808 124.24 19.3803Q124.348 19.0799 124.44 18.7745Q124.533 18.4691 124.61 18.1596Q124.688 17.85 124.75 17.5371Q124.812 17.2241 124.859 16.9084Q124.906 16.5928 124.937 16.2752Q124.969 15.9576 124.984 15.6389Q125 15.3202 125 15.0011L125 1.36471e-06L136.001 0Q136.32 0 136.639 0.0156579Q136.958 0.0313157 137.275 0.0625937Q137.593 0.0938717 137.908 0.140695Q138.224 0.187517 138.537 0.249772Q138.85 0.312027 139.159 0.389564Q139.469 0.467101 139.774 0.559733Q140.08 0.652365 140.38 0.759869Q140.681 0.867373 140.975 0.98949Q141.27 1.11161 141.559 1.24804Q141.847 1.38448 142.129 1.53491Q142.41 1.68533 142.684 1.84939Q142.958 2.01344 143.223 2.19073Q143.488 2.36801 143.744 2.55811Q144.001 2.7482 144.247 2.95064Q144.494 3.15308 144.731 3.36738Q144.967 3.58168 145.193 3.80732Q145.418 4.03296 145.633 4.2694Q145.847 4.50585 146.049 4.75252Q146.252 4.9992 146.442 5.2555Q146.632 5.51181 146.809 5.77714Q146.987 6.04247 147.151 6.31618Q147.315 6.58989 147.465 6.87131Q147.616 7.15274 147.752 7.44121Q147.888 7.72968 148.01 8.0245Q148.133 8.31931 148.24 8.61977Q148.348 8.92022 148.44 9.22559Q148.533 9.53096 148.61 9.8405Q148.688 10.15 148.75 10.463Q148.812 10.776 148.859 11.0917Q148.906 11.4073 148.937 11.7249Q148.969 12.0424 148.984 12.3612Q149 12.6799 149 12.999L149 67.001Q149 67.3201 148.984 67.6388Q148.969 67.9576 148.937 68.2751Q148.906 68.5927 148.859 68.9083Q148.812 69.224 148.75 69.537Q148.688 69.8499 148.61 70.1595Q148.533 70.469 148.44 70.7744Q148.348 71.0798 148.24 71.3802Q148.133 71.6807 148.01 71.9755Q147.888 72.2703 147.752 72.5588Q147.616 72.8473 147.465 73.1287Q147.315 73.4101 147.151 73.6838Q146.987 73.9575 146.809 74.2228Q146.632 74.4882 146.442 74.7445Q146.252 75.0008 146.049 75.2475Q145.847 75.4941 145.633 75.7306Q145.418 75.967 145.193 76.1927Q144.967 76.4183 144.731 76.6326Q144.494 76.8469 144.247 77.0494Q144.001 77.2518 143.744 77.4419Q143.488 77.632 143.223 77.8093Q142.958 77.9865 142.684 78.1506Q142.41 78.3147 142.129 78.4651Q141.847 78.6155 141.559 78.7519Q141.27 78.8884 140.976 79.0105Q140.681 79.1326 140.38 79.2401Q140.08 79.3476 139.774 79.4403Q139.469 79.5329 139.159 79.6104Q138.85 79.688 138.537 79.7502Q138.224 79.8125 137.908 79.8593Q137.593 79.9061 137.275 79.9374Q136.958 79.9687 136.639 79.9843Q136.32 80 136.001 80L12.999 80Q12.6799 80 12.3612 79.9844Q12.0424 79.9687 11.7249 79.9374Q11.4073 79.9062 11.0916 79.8593Q10.776 79.8125 10.463 79.7502Q10.15 79.688 9.84049 79.6104Q9.53095 79.5329 9.22558 79.4403Q8.92022 79.3476 8.61976 79.2401Q8.31931 79.1326 8.02449 79.0105Q7.72968 78.8884 7.44121 78.752Q7.15274 78.6155 6.87131 78.4651Q6.58988 78.3147 6.31617 78.1506Q6.04247 77.9866 5.77714 77.8093Q5.51181 77.632 5.2555 77.4419Q4.99919 77.2518 4.75252 77.0494Q4.50585 76.8469 4.2694 76.6326Q4.03296 76.4183 3.80732 76.1927Q3.58167 75.967 3.36737 75.7306Q3.15307 75.4942 2.95064 75.2475Q2.7482 75.0008 2.5581 74.7445Q2.36801 74.4882 2.19073 74.2229Q2.01344 73.9575 1.84938 73.6838Q1.68533 73.4101 1.5349 73.1287Q1.38448 72.8473 1.24804 72.5588Q1.11161 72.2703 0.989489 71.9755Q0.867372 71.6807 0.759868 71.3802Q0.652364 71.0798 0.559732 70.7744Q0.4671 70.469 0.389563 70.1595Q0.312027 69.85 0.249772 69.537Q0.187517 69.224 0.140694 68.9083Q0.0938717 68.5927 0.0625937 68.2751Q0.0313157 67.9576 0.0156579 67.6388Q0 67.3201 0 67.001L0 12.999Q0 12.6799 0.0156579 12.3612Q0.0313157 12.0425 0.0625937 11.7249Q0.0938717 11.4073 0.140694 11.0917Q0.187517 10.776 0.249772 10.463Q0.312027 10.1501 0.389563 9.84052Q0.4671 9.53097 0.559732 9.2256Q0.652364 8.92024 0.759868 8.61978Q0.867372 8.31933 0.989489 8.02451Q1.11161 7.7297 1.24804 7.44123Q1.38448 7.15276 1.5349 6.87133Q1.68533 6.5899 1.84938 6.31619Q2.01344 6.04249 2.19073 5.77716Q2.36801 5.51183 2.5581 5.25552Q2.7482 4.99921 2.95064 4.75254Q3.15307 4.50586 3.36737 4.26942Q3.58167 4.03298 3.80732 3.80733Q4.03296 3.58169 4.2694 3.36739Q4.50585 3.15309 4.75252 2.95065Q4.99919 2.74821 5.2555 2.55812Q5.51181 2.36803 5.77714 2.19074Q6.04247 2.01345 6.31617 1.8494Q6.58988 1.68535 6.87131 1.53492Q7.15274 1.38449 7.44121 1.24806Q7.72968 1.11162 8.02449 0.989505Q8.31931 0.867388 8.61976 0.759884Q8.92022 0.65238 9.22558 0.559748Q9.53095 0.467116 9.84049 0.389579Q10.15 0.312042 10.463 0.249787Q10.776 0.187533 11.0916 0.14071Q11.4073 0.093887 11.7249 0.062609Q12.0424 0.031331 12.3612 0.0156731Q12.6799 1.52588e-05 12.999 1.52588e-05L24 1.38941e-05L24 15.0011Q24 15.6397 24.0626 16.2752Q24.1252 16.9107 24.2498 17.5371Q24.3744 18.1634 24.5597 18.7745Q24.7451 19.3856 24.9895 19.9756Q25.2339 20.5656 25.5349 21.1288Q25.8359 21.692 26.1907 22.223Q26.5455 22.7539 26.9506 23.2476Q27.3558 23.7412 27.8073 24.1928Q28.2589 24.6443 28.7525 25.0495Q29.2462 25.4546 29.7771 25.8094Q30.3081 26.1642 30.8713 26.4652Q31.4345 26.7662 32.0245 27.0106Q32.6145 27.255 33.2256 27.4404Q33.8367 27.6257 34.463 27.7503Q35.0894 27.8749 35.7249 27.9375Q36.3604 28.0001 36.999 28.0001Z" id="path_2" />
    <path d="M227.001 0L12.999 0Q12.6799 0 12.3612 0.0156579Q12.0424 0.0313157 11.7249 0.0625937Q11.4073 0.0938717 11.0917 0.140695Q10.776 0.187517 10.463 0.249772Q10.15 0.312027 9.8405 0.389564Q9.53096 0.4671 9.22559 0.559732Q8.92022 0.652364 8.61977 0.759869Q8.31931 0.867373 8.0245 0.98949Q7.72968 1.11161 7.44121 1.24804Q7.15274 1.38448 6.87131 1.53491Q6.58989 1.68533 6.31618 1.84939Q6.04247 2.01344 5.77714 2.19073Q5.51181 2.36801 5.2555 2.55811Q4.99919 2.7482 4.75252 2.95064Q4.50585 3.15308 4.2694 3.36738Q4.03296 3.58168 3.80732 3.80732Q3.58168 4.03296 3.36738 4.2694Q3.15308 4.50585 2.95064 4.75252Q2.7482 4.99919 2.55811 5.2555Q2.36801 5.51181 2.19073 5.77714Q2.01344 6.04247 1.84939 6.31618Q1.68533 6.58989 1.53491 6.87131Q1.38448 7.15274 1.24804 7.44121Q1.11161 7.72968 0.98949 8.0245Q0.867373 8.31931 0.759869 8.61977Q0.652364 8.92022 0.559732 9.22559Q0.4671 9.53096 0.389564 9.8405Q0.312027 10.15 0.249772 10.463Q0.187517 10.776 0.140694 11.0917Q0.0938717 11.4073 0.0625937 11.7249Q0.0313157 12.0424 0.0156579 12.3612Q0 12.6799 0 12.999L0 67.001Q0 67.3201 0.0156579 67.6388Q0.0313157 67.9575 0.0625937 68.2751Q0.0938717 68.5927 0.140695 68.9083Q0.187517 69.224 0.249772 69.537Q0.312027 69.8499 0.389564 70.1595Q0.4671 70.469 0.559732 70.7744Q0.652364 71.0798 0.759869 71.3802Q0.867373 71.6807 0.98949 71.9755Q1.11161 72.2703 1.24804 72.5588Q1.38448 72.8472 1.53491 73.1287Q1.68533 73.4101 1.84939 73.6838Q2.01344 73.9575 2.19073 74.2228Q2.36801 74.4882 2.55811 74.7445Q2.7482 75.0008 2.95064 75.2475Q3.15308 75.4941 3.36738 75.7306Q3.58168 75.967 3.80732 76.1927Q4.03296 76.4183 4.2694 76.6326Q4.50585 76.8469 4.75252 77.0494Q4.99919 77.2518 5.2555 77.4419Q5.51181 77.632 5.77714 77.8093Q6.04247 77.9865 6.31618 78.1506Q6.58989 78.3147 6.87131 78.4651Q7.15274 78.6155 7.44121 78.7519Q7.72968 78.8884 8.0245 79.0105Q8.31931 79.1326 8.61977 79.2401Q8.92022 79.3476 9.22559 79.4403Q9.53096 79.5329 9.8405 79.6104Q10.15 79.688 10.463 79.7502Q10.776 79.8125 11.0917 79.8593Q11.4073 79.9061 11.7249 79.9374Q12.0424 79.9687 12.3612 79.9843Q12.6799 80 12.999 80L24 80L24 64.999Q24 64.6799 24.0157 64.3612Q24.0313 64.0424 24.0626 63.7249Q24.0939 63.4073 24.1407 63.0916Q24.1875 62.776 24.2498 62.463Q24.312 62.15 24.3896 61.8405Q24.4671 61.5309 24.5597 61.2256Q24.6524 60.9202 24.7599 60.6198Q24.8674 60.3193 24.9895 60.0245Q25.1116 59.7297 25.248 59.4412Q25.3845 59.1527 25.5349 58.8713Q25.6853 58.5899 25.8494 58.3162Q26.0134 58.0425 26.1907 57.7771Q26.368 57.5118 26.5581 57.2555Q26.7482 56.9992 26.9506 56.7525Q27.1531 56.5058 27.3674 56.2694Q27.5817 56.033 27.8073 55.8073Q28.033 55.5817 28.2694 55.3674Q28.5058 55.1531 28.7525 54.9506Q28.9992 54.7482 29.2555 54.5581Q29.5118 54.368 29.7771 54.1907Q30.0425 54.0134 30.3162 53.8494Q30.5899 53.6853 30.8713 53.5349Q31.1527 53.3845 31.4412 53.248Q31.7297 53.1116 32.0245 52.9895Q32.3193 52.8674 32.6198 52.7599Q32.9202 52.6524 33.2256 52.5597Q33.531 52.4671 33.8405 52.3896Q34.15 52.312 34.463 52.2498Q34.776 52.1875 35.0916 52.1407Q35.4073 52.0939 35.7249 52.0626Q36.0424 52.0313 36.3612 52.0157Q36.6799 52 36.999 52L204.001 52Q204.32 52 204.639 52.0157Q204.958 52.0313 205.275 52.0626Q205.593 52.0939 205.908 52.1407Q206.224 52.1875 206.537 52.2498Q206.85 52.312 207.159 52.3896Q207.469 52.4671 207.774 52.5597Q208.08 52.6524 208.38 52.7599Q208.681 52.8674 208.975 52.9895Q209.27 53.1116 209.559 53.248Q209.847 53.3845 210.129 53.5349Q210.41 53.6853 210.684 53.8494Q210.958 54.0134 211.223 54.1907Q211.488 54.368 211.744 54.5581Q212.001 54.7482 212.247 54.9506Q212.494 55.1531 212.731 55.3674Q212.967 55.5817 213.193 55.8073Q213.418 56.033 213.633 56.2694Q213.847 56.5058 214.049 56.7525Q214.252 56.9992 214.442 57.2555Q214.632 57.5118 214.809 57.7771Q214.987 58.0425 215.151 58.3162Q215.315 58.5899 215.465 58.8713Q215.615 59.1527 215.752 59.4412Q215.888 59.7297 216.01 60.0245Q216.133 60.3193 216.24 60.6198Q216.348 60.9202 216.44 61.2256Q216.533 61.5309 216.61 61.8405Q216.688 62.15 216.75 62.463Q216.812 62.776 216.859 63.0916Q216.906 63.4073 216.937 63.7249Q216.969 64.0424 216.984 64.3612Q217 64.6799 217 64.999L217 80L227.001 80Q227.32 80 227.639 79.9843Q227.958 79.9687 228.275 79.9374Q228.593 79.9061 228.908 79.8593Q229.224 79.8125 229.537 79.7502Q229.85 79.688 230.16 79.6104Q230.469 79.5329 230.774 79.4403Q231.08 79.3476 231.38 79.2401Q231.681 79.1326 231.975 79.0105Q232.27 78.8884 232.559 78.7519Q232.847 78.6155 233.129 78.4651Q233.41 78.3147 233.684 78.1506Q233.957 77.9865 234.223 77.8093Q234.488 77.632 234.744 77.4419Q235.001 77.2518 235.247 77.0494Q235.494 76.8469 235.731 76.6326Q235.967 76.4183 236.193 76.1927Q236.418 75.967 236.633 75.7306Q236.847 75.4941 237.049 75.2475Q237.252 75.0008 237.442 74.7445Q237.632 74.4882 237.809 74.2228Q237.987 73.9575 238.151 73.6838Q238.315 73.4101 238.465 73.1287Q238.615 72.8472 238.752 72.5588Q238.888 72.2703 239.01 71.9755Q239.133 71.6807 239.24 71.3802Q239.348 71.0798 239.44 70.7744Q239.533 70.469 239.61 70.1595Q239.688 69.8499 239.75 69.537Q239.812 69.224 239.859 68.9083Q239.906 68.5927 239.937 68.2751Q239.969 67.9575 239.984 67.6388Q240 67.3201 240 67.001L240 12.999Q240 12.6799 239.984 12.3612Q239.969 12.0424 239.937 11.7249Q239.906 11.4073 239.859 11.0917Q239.812 10.776 239.75 10.463Q239.688 10.15 239.61 9.8405Q239.533 9.53096 239.44 9.22559Q239.348 8.92022 239.24 8.61977Q239.133 8.31931 239.01 8.0245Q238.888 7.72968 238.752 7.44121Q238.615 7.15274 238.465 6.87131Q238.315 6.58989 238.151 6.31618Q237.987 6.04247 237.809 5.77714Q237.632 5.51181 237.442 5.2555Q237.252 4.99919 237.049 4.75252Q236.847 4.50585 236.633 4.2694Q236.418 4.03296 236.193 3.80732Q235.967 3.58168 235.731 3.36738Q235.494 3.15308 235.247 2.95064Q235.001 2.7482 234.744 2.55811Q234.488 2.36801 234.223 2.19073Q233.957 2.01344 233.684 1.84939Q233.41 1.68533 233.129 1.53491Q232.847 1.38448 232.559 1.24804Q232.27 1.11161 231.975 0.98949Q231.681 0.867373 231.38 0.759869Q231.08 0.652364 230.774 0.559732Q230.469 0.4671 230.16 0.389564Q229.85 0.312027 229.537 0.249772Q229.224 0.187517 228.908 0.140694Q228.593 0.0938717 228.275 0.0625937Q227.958 0.0313157 227.639 0.0156579Q227.32 0 227.001 0Z" id="path_3" />
    <path d="M212 80L28.9998 80L28.9998 65.999Q28.9998 65.778 29.0106 65.5574Q29.0214 65.3368 29.0431 65.1169Q29.0647 64.8971 29.0972 64.6785Q29.1296 64.46 29.1727 64.2433Q29.2158 64.0267 29.2694 63.8124Q29.3231 63.5981 29.3872 63.3867Q29.4514 63.1753 29.5258 62.9673Q29.6002 62.7593 29.6848 62.5552Q29.7693 62.3511 29.8638 62.1514Q29.9582 61.9517 30.0623 61.7569Q30.1665 61.562 30.2801 61.3725Q30.3936 61.1831 30.5164 60.9994Q30.6391 60.8157 30.7707 60.6383Q30.9023 60.4608 31.0424 60.2901Q31.1826 60.1193 31.3309 59.9556Q31.4793 59.7919 31.6355 59.6357Q31.7917 59.4795 31.9554 59.3311Q32.1191 59.1828 32.2898 59.0426Q32.4606 58.9025 32.6381 58.7709Q32.8155 58.6393 32.9992 58.5166Q33.1829 58.3938 33.3723 58.2803Q33.5618 58.1667 33.7567 58.0625Q33.9515 57.9584 34.1512 57.864Q34.3509 57.7695 34.555 57.685Q34.7591 57.6004 34.9671 57.526Q35.1751 57.4516 35.3865 57.3875Q35.5979 57.3233 35.8122 57.2696Q36.0265 57.216 36.2431 57.1729Q36.4598 57.1298 36.6783 57.0974Q36.8969 57.0649 37.1167 57.0433Q37.3365 57.0216 37.5572 57.0108Q37.7778 57 37.9988 57L203.001 56.9999Q203.222 56.9999 203.442 57.0108Q203.663 57.0216 203.883 57.0433Q204.103 57.0649 204.321 57.0973Q204.54 57.1297 204.756 57.1728Q204.973 57.2159 205.187 57.2696Q205.402 57.3233 205.613 57.3874Q205.824 57.4516 206.032 57.526Q206.24 57.6004 206.445 57.6849Q206.649 57.7695 206.848 57.8639Q207.048 57.9584 207.243 58.0625Q207.438 58.1667 207.627 58.2802Q207.817 58.3938 208 58.5165Q208.184 58.6393 208.361 58.7709Q208.539 58.9025 208.71 59.0426Q208.88 59.1828 209.044 59.3311Q209.208 59.4795 209.364 59.6357Q209.52 59.7919 209.669 59.9556Q209.817 60.1193 209.957 60.29Q210.097 60.4608 210.229 60.6382Q210.36 60.8157 210.483 60.9994Q210.606 61.183 210.719 61.3725Q210.833 61.562 210.937 61.7568Q211.041 61.9517 211.136 62.1514Q211.23 62.3511 211.315 62.5552Q211.399 62.7593 211.474 62.9673Q211.548 63.1753 211.612 63.3867Q211.676 63.5981 211.73 63.8123Q211.784 64.0266 211.827 64.2433Q211.87 64.46 211.902 64.6785Q211.935 64.897 211.956 65.1169Q211.978 65.3367 211.989 65.5574Q212 65.778 212 65.9989L212 80Z" id="path_4" />
    <clipPath id="clip_1">
      <use xlink:href="#path_1" />
    </clipPath>
    <clipPath id="clip_2">
      <use xlink:href="#path_2" />
    </clipPath>
    <clipPath id="clip_3">
      <use xlink:href="#path_3" />
    </clipPath>
    <clipPath id="clip_4">
      <use xlink:href="#path_4" />
    </clipPath>
  </defs>
  <g id="Nodes">
    <path d="M173 80L173 97.3804Q173 97.746 172.973 98.1107Q172.947 98.4753 172.893 98.837Q172.84 99.1987 172.761 99.5556Q172.681 99.9124 172.576 100.263Q172.47 100.613 172.34 100.954Q172.209 101.296 172.054 101.627Q171.898 101.958 171.719 102.276Q171.54 102.595 171.338 102.9Q171.137 103.205 170.913 103.494Q170.69 103.784 170.445 104.056Q170.201 104.328 169.938 104.582Q169.675 104.835 169.394 105.069Q169.113 105.303 168.815 105.515Q168.518 105.728 168.205 105.918Q167.893 106.109 167.568 106.276Q167.243 106.442 166.906 106.585L80.0939 143.415Q79.7573 143.558 79.4321 143.725Q79.1068 143.892 78.7946 144.082Q78.4824 144.272 78.185 144.485Q77.8875 144.697 77.6064 144.931Q77.3252 145.165 77.0619 145.419Q76.7986 145.672 76.5545 145.944Q76.3105 146.217 76.0869 146.506Q75.8633 146.795 75.6615 147.1Q75.4597 147.405 75.2807 147.724Q75.1016 148.042 74.9464 148.374Q74.7911 148.705 74.6605 149.046Q74.5298 149.387 74.4244 149.738Q74.319 150.088 74.2395 150.445Q74.1599 150.801 74.1067 151.163Q74.0534 151.525 74.0267 151.889Q74 152.254 74 152.62L74 174" id="线条-3" fill="none" fill-rule="evenodd" stroke="#BDBDBD" stroke-width="10" stroke-linecap="square" />
    <path d="M173 80L173 100.287Q173 100.659 173.028 101.03Q173.055 101.4 173.11 101.768Q173.165 102.136 173.247 102.498Q173.33 102.86 173.438 103.216Q173.547 103.571 173.682 103.918Q173.817 104.264 173.977 104.599Q174.138 104.935 174.322 105.257Q174.507 105.58 174.715 105.888Q174.923 106.195 175.154 106.487Q175.384 106.779 175.636 107.052Q175.887 107.326 176.158 107.58Q176.429 107.835 176.719 108.068Q177.008 108.301 177.314 108.513Q177.619 108.724 177.94 108.912Q178.261 109.1 178.594 109.264Q178.928 109.428 179.273 109.566L263.727 143.481Q264.072 143.619 264.406 143.783Q264.739 143.947 265.06 144.135Q265.381 144.323 265.686 144.534Q265.992 144.746 266.281 144.979Q266.57 145.213 266.842 145.467Q267.113 145.721 267.364 145.995Q267.616 146.268 267.846 146.56Q268.076 146.852 268.285 147.16Q268.493 147.468 268.678 147.79Q268.862 148.113 269.023 148.448Q269.183 148.783 269.318 149.13Q269.453 149.476 269.562 149.831Q269.67 150.187 269.753 150.549Q269.835 150.912 269.89 151.279Q269.945 151.647 269.972 152.017Q270 152.388 270 152.76L270 174" id="线条-2" fill="none" fill-rule="evenodd" stroke="#F8C822" stroke-width="10" stroke-linecap="square" />
    <g id="NodeR" transform="matrix(-1 0 0 1 345 173.99998)">
      <g id="矩形-3-相交">
        <use stroke="none" fill="#434343" xlink:href="#path_1" fill-rule="evenodd" />
        <g clip-path="url(#clip_1)">
          <use xlink:href="#path_1" fill="none" stroke="#808080" stroke-width="6" />
        </g>
      </g>
      <g id="矩形-2-减去-3">
        <use stroke="none" fill="#9848C5" xlink:href="#path_2" fill-rule="evenodd" />
        <g clip-path="url(#clip_2)">
          <use xlink:href="#path_2" fill="none" stroke="#FFFFFF" stroke-width="6" />
        </g>
      </g>
    </g>
    <g id="NodeL" transform="matrix(-1 0 0 1 149 173.99998)">
      <g id="矩形-3-相交">
        <use stroke="none" fill="#434343" xlink:href="#path_1" fill-rule="evenodd" />
        <g clip-path="url(#clip_1)">
          <use xlink:href="#path_1" fill="none" stroke="#808080" stroke-width="6" />
        </g>
      </g>
      <g id="矩形-2-减去-3">
        <use stroke="none" fill="#9848C5" xlink:href="#path_2" fill-rule="evenodd" />
        <g clip-path="url(#clip_2)">
          <use xlink:href="#path_2" fill="none" stroke="#FFFFFF" stroke-width="6" />
        </g>
      </g>
    </g>
    <g id="Node00" transform="matrix(-1 0 0 1 291.49994 0)">
      <g id="矩形-2-减去">
        <use stroke="none" fill="#FFB152" xlink:href="#path_3" fill-rule="evenodd" />
        <g clip-path="url(#clip_3)">
          <use xlink:href="#path_3" fill="none" stroke="#FFFFFF" stroke-width="6" />
        </g>
      </g>
      <g id="矩形-2-相交">
        <use stroke="none" fill="#434343" xlink:href="#path_4" fill-rule="evenodd" />
        <g clip-path="url(#clip_4)">
          <use xlink:href="#path_4" fill="none" stroke="#808080" stroke-width="6" />
        </g>
      </g>
    </g>
  </g>
</svg>